<svg width="166" height="99" viewBox="0 0 166 99" fill="none" xmlns="http://www.w3.org/2000/svg">
<path d="M1.60998 97.1211H164.549" stroke="white" stroke-width="1.62" stroke-linecap="square"/>
<path fill-rule="evenodd" clip-rule="evenodd" d="M41.8362 52.0951L8.0432 8.95065V50.7411C8.0432 51.351 7.82161 51.8633 7.37842 52.278C6.95985 52.7172 6.4428 52.9367 5.82726 52.9367C5.21172 52.9367 4.69468 52.7172 4.27611 52.278C3.83292 51.8633 3.61133 51.351 3.61133 50.7411V2.54669C3.61133 1.49766 4.10375 0.802375 5.08862 0.460829C6.0981 0.119282 6.92292 0.36324 7.56308 1.19271L41.393 44.3371V2.54669C41.393 1.93679 41.6023 1.42447 42.0209 1.00974C42.4641 0.570609 42.9811 0.351046 43.572 0.351046C44.1876 0.351046 44.7169 0.570609 45.1601 1.00974C45.5787 1.42447 45.788 1.93679 45.788 2.54669V50.8875C45.788 50.9606 45.7757 51.0338 45.751 51.107C45.751 51.1558 45.7387 51.2168 45.7141 51.29C45.6895 51.3876 45.6649 51.4608 45.6402 51.5096C45.6156 51.5584 45.591 51.6193 45.5664 51.6925C45.5417 51.7657 45.5048 51.8267 45.4556 51.8755C45.431 51.9243 45.394 51.9853 45.3448 52.0585C45.2955 52.1317 45.2463 52.1926 45.197 52.2414L45.0493 52.3878C44.9262 52.4854 44.8893 52.5098 44.9385 52.461C44.9878 52.4366 44.9631 52.461 44.8647 52.5342C44.84 52.5586 44.8031 52.583 44.7539 52.6074C44.68 52.6562 44.6061 52.6928 44.5323 52.7172L44.3845 52.7904C44.3107 52.8147 44.2245 52.8391 44.126 52.8635C44.0521 52.8879 44.0029 52.9001 43.9783 52.9001C43.8306 52.9245 43.6951 52.9367 43.572 52.9367C43.4243 52.9367 43.2766 52.9245 43.1288 52.9001L42.9811 52.8635C42.858 52.8147 42.7595 52.7782 42.6857 52.7538C42.661 52.7294 42.6118 52.6928 42.5379 52.644C42.4394 52.5952 42.3533 52.5464 42.2794 52.4976C42.2548 52.4732 42.2055 52.4366 42.1317 52.3878L41.8362 52.0951ZM78.5483 4.81552C72.4668 4.81552 67.2717 6.96235 62.9629 11.2561C58.6542 15.5254 56.4998 20.6729 56.4998 26.6988C56.4998 32.7246 58.6542 37.8721 62.9629 42.1415C67.2717 46.4108 72.4668 48.5454 78.5483 48.5454C84.6299 48.5454 89.825 46.4108 94.1338 42.1415C98.4672 37.8721 100.634 32.7246 100.634 26.6988C100.634 20.6729 98.4672 15.5254 94.1338 11.2561C89.825 6.96235 84.6299 4.81552 78.5483 4.81552ZM78.5484 52.9367C71.2357 52.9367 64.9942 50.3752 59.8237 45.252C54.6532 40.1288 52.0679 33.9444 52.0679 26.6988C52.0679 19.4531 54.6532 13.2688 59.8237 8.14558C64.9942 3.02239 71.2357 0.460829 78.5484 0.460829C85.861 0.460829 92.1025 3.02239 97.273 8.14558C102.444 13.2688 105.029 19.4531 105.029 26.6988C105.029 33.9444 102.444 40.1288 97.273 45.252C92.1025 50.3752 85.861 52.9367 78.5484 52.9367ZM118.547 2.80285V50.7411C118.547 51.351 118.326 51.8633 117.883 52.278C117.464 52.7172 116.947 52.9367 116.332 52.9367C115.716 52.9367 115.199 52.7172 114.78 52.278C114.337 51.8633 114.116 51.351 114.116 50.7411V2.80285C114.116 2.19295 114.337 1.68063 114.78 1.2659C115.199 0.826767 115.716 0.607205 116.332 0.607205C116.947 0.607205 117.464 0.826767 117.883 1.2659C118.326 1.68063 118.547 2.19295 118.547 2.80285ZM158.805 14.6593C158.805 11.9514 157.722 9.64595 155.555 7.74305C153.388 5.81575 150.779 4.85212 147.725 4.85212H133.211V24.4299H147.984C150.988 24.3812 153.536 23.4053 155.629 21.5024C157.746 19.5995 158.805 17.3185 158.805 14.6593ZM130.995 0.534017H147.725C151.985 0.534017 155.629 1.91238 158.657 4.66915C161.661 7.42591 163.163 10.7559 163.163 14.6593C163.163 18.1236 161.932 21.1731 159.47 23.8078C157.057 26.4182 154.016 28.004 150.348 28.5651L160.873 49.8262C161.144 50.3629 161.181 50.9119 160.984 51.473C160.787 52.0341 160.418 52.4488 159.876 52.7172C159.581 52.8635 159.261 52.9367 158.916 52.9367C158.005 52.9367 157.352 52.5342 156.958 51.7291L145.546 28.7846H133.211V50.4117C133.211 50.9972 132.989 51.5096 132.546 51.9487C132.128 52.3634 131.611 52.5708 130.995 52.5708C130.404 52.5708 129.887 52.3634 129.444 51.9487C129.025 51.5096 128.816 50.9972 128.816 50.4117V2.69307C128.816 2.08316 129.025 1.57085 129.444 1.15612C129.887 0.741381 130.404 0.534017 130.995 0.534017Z" fill="white"/>
<path fill-rule="evenodd" clip-rule="evenodd" d="M41.8362 52.0951L8.0432 8.95065V50.7411C8.0432 51.351 7.82161 51.8633 7.37842 52.278C6.95985 52.7172 6.4428 52.9367 5.82726 52.9367C5.21172 52.9367 4.69468 52.7172 4.27611 52.278C3.83292 51.8633 3.61133 51.351 3.61133 50.7411V2.54669C3.61133 1.49766 4.10375 0.802375 5.08862 0.460829C6.0981 0.119282 6.92292 0.36324 7.56308 1.19271L41.393 44.3371V2.54669C41.393 1.93679 41.6023 1.42447 42.0209 1.00974C42.4641 0.570609 42.9811 0.351046 43.572 0.351046C44.1876 0.351046 44.7169 0.570609 45.1601 1.00974C45.5787 1.42447 45.788 1.93679 45.788 2.54669V50.8875C45.788 50.9606 45.7757 51.0338 45.751 51.107C45.751 51.1558 45.7387 51.2168 45.7141 51.29C45.6895 51.3876 45.6649 51.4608 45.6402 51.5096C45.6156 51.5584 45.591 51.6193 45.5664 51.6925C45.5417 51.7657 45.5048 51.8267 45.4556 51.8755C45.431 51.9243 45.394 51.9853 45.3448 52.0585C45.2955 52.1317 45.2463 52.1926 45.197 52.2414L45.0493 52.3878C44.9262 52.4854 44.8893 52.5098 44.9385 52.461C44.9878 52.4366 44.9631 52.461 44.8647 52.5342C44.84 52.5586 44.8031 52.583 44.7539 52.6074C44.68 52.6562 44.6061 52.6928 44.5323 52.7172L44.3845 52.7904C44.3107 52.8147 44.2245 52.8391 44.126 52.8635C44.0521 52.8879 44.0029 52.9001 43.9783 52.9001C43.8306 52.9245 43.6951 52.9367 43.572 52.9367C43.4243 52.9367 43.2766 52.9245 43.1288 52.9001L42.9811 52.8635C42.858 52.8147 42.7595 52.7782 42.6857 52.7538C42.661 52.7294 42.6118 52.6928 42.5379 52.644C42.4394 52.5952 42.3533 52.5464 42.2794 52.4976C42.2548 52.4732 42.2055 52.4366 42.1317 52.3878L41.8362 52.0951ZM78.5483 4.81552C72.4668 4.81552 67.2717 6.96235 62.9629 11.2561C58.6542 15.5254 56.4998 20.6729 56.4998 26.6988C56.4998 32.7246 58.6542 37.8721 62.9629 42.1415C67.2717 46.4108 72.4668 48.5454 78.5483 48.5454C84.6299 48.5454 89.825 46.4108 94.1338 42.1415C98.4672 37.8721 100.634 32.7246 100.634 26.6988C100.634 20.6729 98.4672 15.5254 94.1338 11.2561C89.825 6.96235 84.6299 4.81552 78.5483 4.81552ZM78.5484 52.9367C71.2357 52.9367 64.9942 50.3752 59.8237 45.252C54.6532 40.1288 52.0679 33.9444 52.0679 26.6988C52.0679 19.4531 54.6532 13.2688 59.8237 8.14558C64.9942 3.02239 71.2357 0.460829 78.5484 0.460829C85.861 0.460829 92.1025 3.02239 97.273 8.14558C102.444 13.2688 105.029 19.4531 105.029 26.6988C105.029 33.9444 102.444 40.1288 97.273 45.252C92.1025 50.3752 85.861 52.9367 78.5484 52.9367ZM118.547 2.80285V50.7411C118.547 51.351 118.326 51.8633 117.883 52.278C117.464 52.7172 116.947 52.9367 116.332 52.9367C115.716 52.9367 115.199 52.7172 114.78 52.278C114.337 51.8633 114.116 51.351 114.116 50.7411V2.80285C114.116 2.19295 114.337 1.68063 114.78 1.2659C115.199 0.826767 115.716 0.607205 116.332 0.607205C116.947 0.607205 117.464 0.826767 117.883 1.2659C118.326 1.68063 118.547 2.19295 118.547 2.80285ZM158.805 14.6593C158.805 11.9514 157.722 9.64595 155.555 7.74305C153.388 5.81575 150.779 4.85212 147.725 4.85212H133.211V24.4299H147.984C150.988 24.3812 153.536 23.4053 155.629 21.5024C157.746 19.5995 158.805 17.3185 158.805 14.6593ZM130.995 0.534017H147.725C151.985 0.534017 155.629 1.91238 158.657 4.66915C161.661 7.42591 163.163 10.7559 163.163 14.6593C163.163 18.1236 161.932 21.1731 159.47 23.8078C157.057 26.4182 154.016 28.004 150.348 28.5651L160.873 49.8262C161.144 50.3629 161.181 50.9119 160.984 51.473C160.787 52.0341 160.418 52.4488 159.876 52.7172C159.581 52.8635 159.261 52.9367 158.916 52.9367C158.005 52.9367 157.352 52.5342 156.958 51.7291L145.546 28.7846H133.211V50.4117C133.211 50.9972 132.989 51.5096 132.546 51.9487C132.128 52.3634 131.611 52.5708 130.995 52.5708C130.404 52.5708 129.887 52.3634 129.444 51.9487C129.025 51.5096 128.816 50.9972 128.816 50.4117V2.69307C128.816 2.08316 129.025 1.57085 129.444 1.15612C129.887 0.741381 130.404 0.534017 130.995 0.534017Z" fill="white"/>
<path fill-rule="evenodd" clip-rule="evenodd" d="M1.13867 72.8065H4.00509C5.29654 72.8065 6.24485 73.0237 6.85007 73.4581C7.45528 73.8925 7.75788 74.5489 7.75788 75.4271C7.75788 76.0268 7.57323 76.5261 7.2039 76.9251C6.83458 77.3241 6.29489 77.5803 5.58484 77.6936V77.7361C6.4188 77.8589 7.03234 78.1197 7.42549 78.5187C7.81865 78.9177 8.01522 79.4737 8.01522 80.1867C8.01522 81.1405 7.69594 81.8748 7.05736 82.3894C6.41879 82.9041 5.51336 83.1615 4.34106 83.1615H1.13867V72.8065ZM1.86779 77.4174H4.1695C5.15119 77.4174 5.86481 77.2557 6.31038 76.9322C6.75595 76.6088 6.97873 76.1023 6.97873 75.413C6.97873 74.7236 6.72736 74.2231 6.2246 73.9114C5.72184 73.5998 4.97248 73.444 3.9765 73.444H1.86779V77.4174ZM1.86779 78.0548V82.524H4.32676C6.26154 82.524 7.22892 81.7449 7.22892 80.1867C7.22892 78.7654 6.20912 78.0548 4.1695 78.0548H1.86779ZM15.6256 78.4727L18.6851 72.8065H19.4714L15.9902 79.1597V83.1615H15.2396V79.2164L11.7442 72.8065H12.5805L15.6256 78.4727Z" fill="#6B758C"/>
<path fill-rule="evenodd" clip-rule="evenodd" d="M1.13867 72.8065H4.00509C5.29654 72.8065 6.24485 73.0237 6.85007 73.4581C7.45528 73.8925 7.75788 74.5489 7.75788 75.4271C7.75788 76.0268 7.57323 76.5261 7.2039 76.9251C6.83458 77.3241 6.29489 77.5803 5.58484 77.6936V77.7361C6.4188 77.8589 7.03234 78.1197 7.42549 78.5187C7.81865 78.9177 8.01522 79.4737 8.01522 80.1867C8.01522 81.1405 7.69594 81.8748 7.05736 82.3894C6.41879 82.9041 5.51336 83.1615 4.34106 83.1615H1.13867V72.8065ZM1.86779 77.4174H4.1695C5.15119 77.4174 5.86481 77.2557 6.31038 76.9322C6.75595 76.6088 6.97873 76.1023 6.97873 75.413C6.97873 74.7236 6.72736 74.2231 6.2246 73.9114C5.72184 73.5998 4.97248 73.444 3.9765 73.444H1.86779V77.4174ZM1.86779 78.0548V82.524H4.32676C6.26154 82.524 7.22892 81.7449 7.22892 80.1867C7.22892 78.7654 6.20912 78.0548 4.1695 78.0548H1.86779ZM15.6256 78.4727L18.6851 72.8065H19.4714L15.9902 79.1597V83.1615H15.2396V79.2164L11.7442 72.8065H12.5805L15.6256 78.4727Z" fill="white"/>
<path fill-rule="evenodd" clip-rule="evenodd" d="M44.139 67.6398V84.6501C44.139 84.8666 44.0604 85.0483 43.9031 85.1955C43.7546 85.3513 43.5711 85.4292 43.3527 85.4292C43.1343 85.4292 42.9508 85.3513 42.8023 85.1955C42.645 85.0483 42.5664 84.8666 42.5664 84.6501V67.6398C42.5664 67.4234 42.645 67.2416 42.8023 67.0944C42.9508 66.9386 43.1343 66.8607 43.3527 66.8607C43.5711 66.8607 43.7546 66.9386 43.9031 67.0944C44.0604 67.2416 44.139 67.4234 44.139 67.6398ZM64.9526 68.354C62.7947 68.354 60.9513 69.1158 59.4223 70.6393C57.8934 72.1543 57.129 73.9808 57.129 76.119C57.129 78.2572 57.8934 80.0837 59.4223 81.5987C60.9513 83.1136 62.7947 83.871 64.9526 83.871C67.1106 83.871 68.954 83.1136 70.483 81.5987C72.0206 80.0837 72.7894 78.2572 72.7894 76.119C72.7894 73.9808 72.0206 72.1543 70.483 70.6393C68.954 69.1158 67.1106 68.354 64.9526 68.354ZM64.9526 85.4292C62.3578 85.4292 60.1431 84.5203 58.3084 82.7024C56.4737 80.8845 55.5564 78.69 55.5564 76.119C55.5564 73.548 56.4737 71.3535 58.3084 69.5356C60.1431 67.7177 62.3578 66.8088 64.9526 66.8088C67.5474 66.8088 69.7622 67.7177 71.5969 69.5356C73.4316 71.3535 74.3489 73.548 74.3489 76.119C74.3489 78.69 73.4316 80.8845 71.5969 82.7024C69.7622 84.5203 67.5474 85.4292 64.9526 85.4292ZM100.26 85.1306L88.2693 69.8213V84.6501C88.2693 84.8666 88.1907 85.0483 88.0334 85.1955C87.8849 85.3513 87.7015 85.4292 87.483 85.4292C87.2646 85.4292 87.0811 85.3513 86.9326 85.1955C86.7754 85.0483 86.6967 84.8666 86.6967 84.6501V67.5489C86.6967 67.1767 86.8715 66.93 87.2209 66.8088C87.5791 66.6876 87.8718 66.7741 88.099 67.0685L100.103 82.3778V67.5489C100.103 67.3325 100.177 67.1507 100.326 67.0035C100.483 66.8477 100.667 66.7698 100.876 66.7698C101.095 66.7698 101.283 66.8477 101.44 67.0035C101.588 67.1507 101.663 67.3325 101.663 67.5489V84.7021C101.663 84.728 101.658 84.754 101.65 84.78C101.65 84.7973 101.645 84.8189 101.636 84.8449C101.628 84.8795 101.619 84.9055 101.61 84.9228C101.601 84.9401 101.593 84.9618 101.584 84.9878C101.575 85.0137 101.562 85.0354 101.545 85.0527C101.536 85.07 101.523 85.0916 101.505 85.1176C101.488 85.1436 101.47 85.1652 101.453 85.1825L101.401 85.2345C101.357 85.2691 101.344 85.2777 101.361 85.2604C101.379 85.2518 101.37 85.2604 101.335 85.2864C101.326 85.2951 101.313 85.3037 101.296 85.3124C101.269 85.3297 101.243 85.3427 101.217 85.3513L101.165 85.3773C101.138 85.386 101.108 85.3946 101.073 85.4033C101.047 85.4119 101.029 85.4163 101.02 85.4163C100.968 85.4249 100.92 85.4292 100.876 85.4292C100.824 85.4292 100.771 85.4249 100.719 85.4163L100.667 85.4033C100.623 85.386 100.588 85.373 100.562 85.3643C100.553 85.3557 100.536 85.3427 100.509 85.3254C100.474 85.308 100.444 85.2907 100.418 85.2734C100.409 85.2648 100.391 85.2518 100.365 85.2345L100.26 85.1306ZM116.016 67.6398V84.6501C116.016 84.8666 115.937 85.0483 115.78 85.1955C115.631 85.3513 115.448 85.4292 115.229 85.4292C115.011 85.4292 114.827 85.3513 114.679 85.1955C114.522 85.0483 114.443 84.8666 114.443 84.6501V67.6398C114.443 67.4234 114.522 67.2416 114.679 67.0944C114.827 66.9386 115.011 66.8607 115.229 66.8607C115.448 66.8607 115.631 66.9386 115.78 67.0944C115.937 67.2416 116.016 67.4234 116.016 67.6398ZM133.068 84.6501V68.354H127.892C127.673 68.354 127.485 68.2804 127.328 68.1332C127.18 67.9861 127.105 67.8043 127.105 67.5879C127.105 67.3714 127.18 67.1897 127.328 67.0425C127.485 66.8867 127.673 66.8088 127.892 66.8088H139.804C140.022 66.8088 140.206 66.8867 140.354 67.0425C140.512 67.1897 140.59 67.3714 140.59 67.5879C140.59 67.8043 140.512 67.9861 140.354 68.1332C140.206 68.2804 140.022 68.354 139.804 68.354H134.628V84.6501C134.628 84.8666 134.553 85.0527 134.405 85.2085C134.247 85.3557 134.06 85.4292 133.841 85.4292C133.632 85.4292 133.448 85.3557 133.291 85.2085C133.142 85.0527 133.068 84.8666 133.068 84.6501ZM164.628 66.9646C164.802 67.1031 164.903 67.2762 164.929 67.484C164.947 67.7004 164.89 67.8908 164.759 68.0553L158.298 76.0671V84.6501C158.298 84.8666 158.224 85.0483 158.075 85.1955C157.918 85.3513 157.73 85.4292 157.512 85.4292C157.302 85.4292 157.119 85.3513 156.961 85.1955C156.813 85.0483 156.739 84.8666 156.739 84.6501V76.0671L150.278 68.0553C150.147 67.8908 150.09 67.7004 150.107 67.484C150.134 67.2762 150.234 67.1031 150.409 66.9646C150.575 66.8347 150.763 66.7828 150.972 66.8088C151.191 66.8261 151.37 66.9213 151.51 67.0944L157.512 74.5478L163.527 67.0944C163.667 66.9213 163.841 66.8261 164.051 66.8088C164.27 66.7828 164.462 66.8347 164.628 66.9646Z" fill="white"/>
</svg>
