<svg width="51" height="53" viewBox="0 0 51 53" fill="none" xmlns="http://www.w3.org/2000/svg">
<path d="M37.4374 26.5C37.4374 19.6001 36.2256 13.2911 34.2143 8.65841C33.2096 6.34415 31.9796 4.38913 30.5478 2.99425C29.11 1.5935 27.4024 0.7 25.5 0.7V3.3C26.5352 3.3 27.626 3.77771 28.7335 4.85659C29.847 5.94135 30.9092 7.57439 31.8294 9.69385C33.668 13.9286 34.8374 19.8696 34.8374 26.5H37.4374ZM25.5 0.7C23.5976 0.7 21.89 1.5935 20.4522 2.99425C19.0204 4.38913 17.7904 6.34415 16.7857 8.65841C14.7744 13.2911 13.5626 19.6001 13.5626 26.5H16.1626C16.1626 19.8696 17.332 13.9286 19.1706 9.69385C20.0908 7.57439 21.153 5.94135 22.2665 4.85659C23.374 3.77771 24.4648 3.3 25.5 3.3V0.7ZM13.5626 26.5C13.5626 33.3999 14.7744 39.7089 16.7857 44.3416C17.7904 46.6558 19.0204 48.6109 20.4522 50.0057C21.89 51.4065 23.5976 52.3 25.5 52.3V49.7C24.4648 49.7 23.374 49.2223 22.2665 48.1434C21.153 47.0587 20.0908 45.4256 19.1706 43.3061C17.332 39.0714 16.1626 33.1304 16.1626 26.5H13.5626ZM25.5 52.3C27.4024 52.3 29.11 51.4065 30.5478 50.0057C31.9796 48.6109 33.2096 46.6558 34.2143 44.3416C36.2256 39.7089 37.4374 33.3999 37.4374 26.5H34.8374C34.8374 33.1304 33.668 39.0714 31.8294 43.3061C30.9092 45.4256 29.847 47.0587 28.7335 48.1434C27.626 49.2223 26.5352 49.7 25.5 49.7V52.3ZM19.5482 16.4671C13.3845 19.9039 8.11709 24.0537 4.74243 28.0291C3.05854 30.0127 1.79466 32.0126 1.15925 33.9113C0.521048 35.8183 0.480252 37.7565 1.47287 39.417L3.70455 38.083C3.22838 37.2864 3.13563 36.1982 3.62484 34.7364C4.11684 33.2663 5.15973 31.555 6.72454 29.7117C9.84728 26.0331 14.845 22.0664 20.8144 18.738L19.5482 16.4671ZM1.47287 39.417C2.45246 41.0558 4.20157 42.0239 6.2268 42.5142C8.26135 43.0068 10.7262 43.059 13.4068 42.7446C18.7751 42.115 25.2606 39.9849 31.4518 36.5329L30.1856 34.262C24.2436 37.5751 18.0829 39.5784 13.1039 40.1623C10.6109 40.4547 8.47676 40.3838 6.83859 39.9872C5.19111 39.5884 4.19373 38.9013 3.70455 38.083L1.47287 39.417ZM31.4518 36.5329C37.6155 33.0961 42.8829 28.9463 46.2576 24.9709C47.9415 22.9873 49.2053 20.9874 49.8408 19.0887C50.479 17.1817 50.5197 15.2435 49.5271 13.583L47.2955 14.917C47.7716 15.7136 47.8644 16.8018 47.3752 18.2636C46.8832 19.7337 45.8403 21.445 44.2755 23.2883C41.1527 26.9669 36.155 30.9336 30.1856 34.262L31.4518 36.5329ZM49.5271 13.583C48.5475 11.9442 46.7984 10.9761 44.7732 10.4858C42.7387 9.99323 40.2738 9.94097 37.5932 10.2554C32.2249 10.885 25.7394 13.0151 19.5482 16.4671L20.8144 18.738C26.7564 15.4249 32.9171 13.4216 37.8961 12.8377C40.3891 12.5453 42.5232 12.6162 44.1614 13.0128C45.8089 13.4116 46.8063 14.0987 47.2955 14.917L49.5271 13.583ZM19.5482 36.5329C25.7394 39.9849 32.2249 42.115 37.5932 42.7446C40.2738 43.059 42.7387 43.0068 44.7732 42.5142C46.7984 42.0239 48.5475 41.0558 49.5271 39.417L47.2955 38.083C46.8063 38.9013 45.8089 39.5884 44.1614 39.9872C42.5232 40.3838 40.3891 40.4547 37.8961 40.1623C32.9171 39.5784 26.7564 37.5751 20.8144 34.262L19.5482 36.5329ZM49.5271 39.417C50.5197 37.7565 50.479 35.8183 49.8408 33.9113C49.2053 32.0126 47.9415 30.0127 46.2576 28.0291C42.8829 24.0537 37.6155 19.9039 31.4518 16.4671L30.1856 18.738C36.155 22.0664 41.1527 26.0331 44.2755 29.7117C45.8403 31.555 46.8832 33.2663 47.3752 34.7364C47.8644 36.1982 47.7716 37.2864 47.2955 38.083L49.5271 39.417ZM31.4518 16.4671C25.2606 13.0151 18.7751 10.885 13.4068 10.2554C10.7262 9.94097 8.26135 9.99323 6.2268 10.4858C4.20157 10.9761 2.45246 11.9442 1.47287 13.583L3.70455 14.917C4.19373 14.0987 5.19111 13.4116 6.83859 13.0128C8.47676 12.6162 10.6109 12.5453 13.1039 12.8377C18.0829 13.4216 24.2436 15.4249 30.1856 18.738L31.4518 16.4671ZM1.47287 13.583C0.480252 15.2435 0.521048 17.1817 1.15925 19.0887C1.79466 20.9874 3.05854 22.9873 4.74243 24.9709C8.11709 28.9463 13.3845 33.0961 19.5482 36.5329L20.8144 34.262C14.845 30.9336 9.84728 26.9669 6.72454 23.2883C5.15973 21.445 4.11684 19.7337 3.62484 18.2636C3.13563 16.8018 3.22838 15.7136 3.70455 14.917L1.47287 13.583ZM27.473 26.5C27.473 27.486 26.6321 28.3613 25.5 28.3613V30.9613C27.9813 30.9613 30.073 29.0072 30.073 26.5H27.473ZM25.5 28.3613C24.3667 28.3613 23.527 27.4864 23.527 26.5H20.927C20.927 29.0068 23.0166 30.9613 25.5 30.9613V28.3613ZM23.527 26.5C23.527 25.5147 24.3671 24.6387 25.5 24.6387V22.0387C23.0162 22.0387 20.927 23.9952 20.927 26.5H23.527ZM25.5 24.6387C26.6317 24.6387 27.473 25.5151 27.473 26.5H30.073C30.073 23.9948 27.9818 22.0387 25.5 22.0387V24.6387Z" fill="#3B9827"/>
</svg>
