<svg width="229" height="35" viewBox="0 0 229 35" fill="none" xmlns="http://www.w3.org/2000/svg">
<path d="M51.1048 22.1219H61.1019C61.5243 22.1219 61.7355 22.3313 61.7355 22.7501V25.0187C61.7355 25.4375 61.5243 25.6469 61.1019 25.6469H47.6903C47.2678 25.6469 47.0566 25.4375 47.0566 25.0187V8.68533C47.0566 8.26653 47.2678 8.05713 47.6903 8.05713H60.8555C61.2779 8.05713 61.4891 8.26653 61.4891 8.68533V10.9539C61.4891 11.3727 61.2779 11.5821 60.8555 11.5821H51.1048V14.9674H58.5674C58.9898 14.9674 59.201 15.1768 59.201 15.5956V17.8641C59.201 18.2829 58.9898 18.4923 58.5674 18.4923H51.1048V22.1219Z" fill="#C9C9C9"/>
<path d="M82.9972 13.4666C82.9972 13.8854 82.786 14.0948 82.3636 14.0948H79.5827C79.1603 14.0948 78.9491 13.8854 78.9491 13.4666V12.6988C78.9491 11.7914 78.4915 11.3028 77.541 11.3028H72.2257C71.3104 11.3028 70.8176 11.7565 70.8176 12.6988V20.9702C70.8176 21.8776 71.2752 22.3662 72.2257 22.3662H77.541C78.4563 22.3662 78.9491 21.9125 78.9491 20.9702V20.2023C78.9491 19.7835 79.1603 19.5741 79.5827 19.5741H82.3636C82.786 19.5741 82.9972 19.7835 82.9972 20.2023V21.4588C82.9972 24.3904 81.5188 25.8562 78.5619 25.8562H71.24C68.2831 25.8562 66.8047 24.3904 66.8047 21.4588V12.2102C66.8047 9.27856 68.2831 7.81274 71.24 7.81274H78.5619C81.5188 7.81274 82.9972 9.27856 82.9972 12.2102V13.4666Z" fill="#C9C9C9"/>
<path fill-rule="evenodd" clip-rule="evenodd" d="M100.949 25.8911C103.906 25.8911 105.384 24.4253 105.384 21.4937V12.2102C105.384 9.27856 103.906 7.81274 100.949 7.81274H93.24C90.2831 7.81274 88.8047 9.27856 88.8047 12.2102V21.4937C88.8047 24.4253 90.2831 25.8911 93.24 25.8911H100.949ZM99.9283 11.3028C100.879 11.3028 101.336 11.7914 101.336 12.6988V20.9702C101.336 21.9125 100.843 22.3662 99.9283 22.3662H94.2257C93.2752 22.3662 92.8176 21.8776 92.8176 20.9702V12.6988C92.8176 11.7565 93.3104 11.3028 94.2257 11.3028H99.9283Z" fill="#C9C9C9"/>
<path d="M115.734 25.0187C115.734 25.4375 115.522 25.6469 115.1 25.6469H112.319C111.897 25.6469 111.686 25.4375 111.686 25.0187V8.68533C111.686 8.26653 111.897 8.05713 112.319 8.05713H125.59C126.012 8.05713 126.224 8.26653 126.224 8.68533V10.9539C126.224 11.3727 126.012 11.5821 125.59 11.5821H115.734V15.7352H122.316C122.739 15.7352 122.95 15.9446 122.95 16.3634V18.597C122.95 19.0158 122.739 19.2252 122.316 19.2252H115.734V25.0187Z" fill="#C9C9C9"/>
<path fill-rule="evenodd" clip-rule="evenodd" d="M131.504 24.9838L132.63 21.9823H139.459L140.585 24.9838C140.656 25.1583 140.797 25.3328 140.902 25.4375C141.008 25.5422 141.219 25.612 141.466 25.612H144.634C145.056 25.612 145.197 25.4026 145.021 24.9838L138.825 8.68533C138.755 8.51083 138.649 8.33633 138.509 8.23163C138.403 8.12693 138.192 8.05713 137.945 8.05713H134.284C133.756 8.05713 133.44 8.26653 133.264 8.68533L127.068 24.9838C126.892 25.4026 127.033 25.612 127.455 25.612H130.624C130.87 25.612 131.046 25.5422 131.187 25.4375C131.328 25.3328 131.433 25.1583 131.504 24.9838ZM136.185 13.1177L138.192 18.4923H133.897L135.939 13.1177H136.185Z" fill="#C9C9C9"/>
<path d="M165.825 13.4666C165.825 13.8854 165.614 14.0948 165.192 14.0948H162.411C161.988 14.0948 161.777 13.8854 161.777 13.4666V12.6988C161.777 11.7914 161.32 11.3028 160.369 11.3028H155.054C154.139 11.3028 153.646 11.7565 153.646 12.6988V20.9702C153.646 21.8776 154.103 22.3662 155.054 22.3662H160.369C161.284 22.3662 161.777 21.9125 161.777 20.9702V20.2023C161.777 19.7835 161.988 19.5741 162.411 19.5741H165.192C165.614 19.5741 165.825 19.7835 165.825 20.2023V21.4588C165.825 24.3904 164.347 25.8562 161.39 25.8562H154.068C151.111 25.8562 149.633 24.3904 149.633 21.4588V12.2102C149.633 9.27856 151.111 7.81274 154.068 7.81274H161.39C164.347 7.81274 165.825 9.27856 165.825 12.2102V13.4666Z" fill="#C9C9C9"/>
<path d="M179.87 25.0187C179.87 25.4375 179.659 25.6469 179.236 25.6469H176.455C176.033 25.6469 175.822 25.4375 175.822 25.0187V11.5821H170.753C170.33 11.5821 170.119 11.3727 170.119 10.9539V8.68533C170.119 8.26653 170.33 8.05713 170.753 8.05713H184.939C185.361 8.05713 185.572 8.26653 185.572 8.68533V10.9539C185.572 11.3727 185.361 11.5821 184.939 11.5821H179.87V25.0187Z" fill="#C9C9C9"/>
<path fill-rule="evenodd" clip-rule="evenodd" d="M201.73 25.8911C204.687 25.8911 206.166 24.4253 206.166 21.4937V12.2102C206.166 9.27856 204.687 7.81274 201.73 7.81274H194.021C191.064 7.81274 189.586 9.27856 189.586 12.2102V21.4937C189.586 24.4253 191.064 25.8911 194.021 25.8911H201.73ZM200.745 11.3028C201.695 11.3028 202.153 11.7914 202.153 12.6988V20.9702C202.153 21.9125 201.66 22.3662 200.745 22.3662H195.042C194.092 22.3662 193.634 21.8776 193.634 20.9702V12.6988C193.634 11.7565 194.127 11.3028 195.042 11.3028H200.745Z" fill="#C9C9C9"/>
<path fill-rule="evenodd" clip-rule="evenodd" d="M227.462 17.9688C227.779 17.4453 227.92 16.6775 227.92 15.7352V12.4546C227.92 9.52294 226.442 8.05713 223.485 8.05713H213.1C212.678 8.05713 212.467 8.26653 212.467 8.68533V25.0187C212.467 25.4375 212.678 25.6469 213.1 25.6469H215.881C216.304 25.6469 216.515 25.4375 216.515 25.0187V20.1326H220.95L223.59 25.0187C223.696 25.1932 223.802 25.3677 223.978 25.4724C224.154 25.5771 224.365 25.6469 224.611 25.6469H227.638C227.85 25.6469 227.991 25.5771 228.061 25.4724C228.131 25.3677 228.131 25.1932 228.026 25.0187L225.104 19.8883C225.632 19.7836 226.09 19.5742 226.512 19.2252C226.864 18.9111 227.181 18.5272 227.462 17.9688ZM216.55 16.6077V11.5821V11.5472H222.499C223.45 11.5472 223.907 12.0358 223.907 12.9432V15.2117C223.907 16.154 223.414 16.6077 222.499 16.6077H216.55Z" fill="#C9C9C9"/>
<path d="M30.2185 35H4.99537C2.25143 35 0 32.795 0 30.03V4.97C0.0351786 2.205 2.25143 0 4.99537 0H30.2185C32.9624 0 35.2138 2.205 35.2138 4.97V30.065C35.2138 32.795 32.9624 35 30.2185 35Z" fill="#3BF285"/>
<ellipse cx="11.7388" cy="10.3703" rx="3.91265" ry="3.88889" fill="white"/>
<path d="M23.8682 20.7757H16.3672V18.6736H21.8747C22.4491 18.6736 22.8207 18.2882 22.8207 17.6926V15.8007C22.8207 15.2051 22.4491 14.8197 21.8747 14.8197H16.3672V12.9278H23.6654C24.2398 12.9278 24.6115 12.5424 24.6115 11.9468V10.055C24.6115 9.45936 24.2398 9.07397 23.6654 9.07397H13.1912C12.6168 9.07397 12.2451 9.45936 12.2451 10.055V21.056C11.941 21.2311 11.7383 21.5464 11.7383 21.9318C11.7383 22.4924 12.1775 22.9128 12.6843 22.9128C13.1912 22.9128 13.6304 22.4574 13.6304 21.9318C13.6304 21.5464 13.4277 21.2311 13.1236 21.056V10.055C13.1236 10.0199 13.1236 10.0199 13.1236 9.98489C13.1236 9.98489 13.1574 9.98489 13.1912 9.98489H23.6316C23.6654 9.98489 23.6654 9.98489 23.6992 9.98489C23.6992 9.98489 23.6992 10.0199 23.6992 10.055V11.9468C23.6992 11.9819 23.6992 11.9819 23.6992 12.0169C23.6992 12.0169 23.6654 12.0169 23.6316 12.0169H15.928C15.6915 12.0169 15.4887 12.2271 15.4887 12.4724V15.2752C15.4887 15.5204 15.6915 15.7306 15.928 15.7306H21.8747C21.9085 15.7306 21.9085 15.7306 21.9422 15.7306C21.9422 15.7306 21.9422 15.7657 21.9422 15.8007V17.6926C21.9422 17.7276 21.9422 17.7276 21.9422 17.7627C21.9422 17.7627 21.9085 17.7627 21.8747 17.7627H15.928C15.6915 17.7627 15.4887 17.9729 15.4887 18.2181V21.2311C15.4887 21.4764 15.6915 21.6866 15.928 21.6866H23.8682C23.902 21.6866 23.902 21.6866 23.9357 21.6866C23.9357 21.6866 23.9357 21.7216 23.9357 21.7567V23.6485C23.9357 23.6836 23.9357 23.6836 23.9357 23.7186C23.9357 23.7186 23.902 23.7186 23.8682 23.7186H18.8338C18.5972 23.7186 18.3945 23.9288 18.3945 24.1741C18.3945 24.4193 18.5972 24.6295 18.8338 24.6295H23.8344C24.4088 24.6295 24.7804 24.2441 24.7804 23.6485V21.7567C24.7804 21.126 24.4426 20.7757 23.8682 20.7757Z" fill="#3A3A3A"/>
</svg>
